<svg width="48" height="72" viewBox="0 0 48 72" fill="none" xmlns="http://www.w3.org/2000/svg">
<path d="M43.6525 67.4066L43.9222 66.7068L43.9222 66.7068L43.6525 67.4066ZM46.6416 69.127C47.0202 68.959 47.191 68.5159 47.023 68.1373L44.2858 61.9672C44.1179 61.5885 43.6748 61.4178 43.2961 61.5857C42.9175 61.7537 42.7467 62.1968 42.9147 62.5754L45.3477 68.06L39.8632 70.493C39.4845 70.661 39.3138 71.1041 39.4817 71.4827C39.6497 71.8613 40.0928 72.0321 40.4714 71.8642L46.6416 69.127ZM1.58621 1.48017C1.60753 1.0665 1.28948 0.713878 0.875814 0.692555C0.46215 0.671232 0.109523 0.989288 0.0882001 1.40295L1.58621 1.48017ZM0.0268557 2.92149C0.014746 3.33553 0.340572 3.68099 0.754609 3.6931C1.16865 3.70521 1.5141 3.37938 1.52621 2.96535L0.0268557 2.92149ZM1.50558 5.93286C1.49921 5.5187 1.15831 5.18811 0.744144 5.19447C0.329979 5.20084 -0.000610036 5.54174 0.00575189 5.9559L1.50558 5.93286ZM0.120201 8.98818C0.145086 9.40165 0.500438 9.71665 0.913904 9.69177C1.32737 9.66688 1.64238 9.31153 1.61749 8.89807L0.120201 8.98818ZM1.8621 11.8551C1.8187 11.4431 1.44958 11.1444 1.03765 11.1878C0.625712 11.2312 0.326955 11.6003 0.370354 12.0122L1.8621 11.8551ZM0.756026 15.0225C0.817878 15.4321 1.20004 15.714 1.60961 15.6521C2.01918 15.5903 2.30106 15.2081 2.23921 14.7985L0.756026 15.0225ZM2.74829 17.7228C2.66809 17.3164 2.27365 17.052 1.86727 17.1322C1.46089 17.2124 1.19647 17.6068 1.27667 18.0132L2.74829 17.7228ZM1.93112 20.9771C2.02949 21.3795 2.43542 21.6259 2.83778 21.5276C3.24015 21.4292 3.48658 21.0233 3.3882 20.6209L1.93112 20.9771ZM4.1576 23.4872C4.04126 23.0896 3.62467 22.8617 3.22714 22.978C2.8296 23.0944 2.60164 23.5109 2.71798 23.9085L4.1576 23.4872ZM3.63557 26.8014C3.76963 27.1933 4.19602 27.4023 4.58794 27.2683C4.97986 27.1342 5.18889 26.7078 5.05483 26.3159L3.63557 26.8014ZM6.07799 29.1015C5.9265 28.716 5.49117 28.5263 5.10565 28.6778C4.72013 28.8293 4.53042 29.2646 4.68191 29.6501L6.07799 29.1015ZM5.85478 32.4491C6.02338 32.8274 6.46677 32.9974 6.84512 32.8288C7.22347 32.6602 7.3935 32.2169 7.2249 31.8385L5.85478 32.4491ZM8.49329 34.5217C8.30794 34.1513 7.85738 34.0013 7.48696 34.1866C7.11653 34.372 6.9665 34.8225 7.15185 35.1929L8.49329 34.5217ZM8.57033 37.8761C8.77206 38.2379 9.22887 38.3676 9.59064 38.1659C9.95241 37.9641 10.0822 37.5073 9.88042 37.1456L8.57033 37.8761ZM11.3834 39.7047C11.1657 39.3523 10.7036 39.2431 10.3512 39.4608C9.99876 39.6785 9.88956 40.1407 10.1073 40.4931L11.3834 39.7047ZM11.7595 43.0387C11.9928 43.381 12.4593 43.4695 12.8016 43.2363C13.144 43.003 13.2324 42.5365 12.9992 42.1942L11.7595 43.0387ZM14.7246 44.6089C14.4763 44.2774 14.0063 44.2099 13.6747 44.4582C13.3432 44.7064 13.2756 45.1765 13.5239 45.508L14.7246 44.6089ZM15.397 47.8961C15.6598 48.2163 16.1324 48.2627 16.4526 47.9998C16.7727 47.737 16.8191 47.2644 16.5563 46.9443L15.397 47.8961ZM18.4905 49.1953C18.2136 48.8872 17.7394 48.862 17.4313 49.1389C17.1233 49.4158 17.0981 49.89 17.375 50.1981L18.4905 49.1953ZM19.4538 52.409C19.7442 52.7043 20.2191 52.7083 20.5144 52.4179C20.8098 52.1275 20.8137 51.6526 20.5233 51.3573L19.4538 52.409ZM22.6509 53.426C22.3476 53.144 21.873 53.1613 21.591 53.4647C21.3089 53.768 21.3262 54.2426 21.6296 54.5246L22.6509 53.426ZM23.8982 56.5406C24.2139 56.8088 24.6872 56.7702 24.9554 56.4545C25.2235 56.1388 25.1849 55.6655 24.8692 55.3973L23.8982 56.5406ZM27.1738 57.2672C26.8464 57.0135 26.3753 57.0733 26.1216 57.4007C25.8679 57.7281 25.9277 58.1992 26.2551 58.4529L27.1738 57.2672ZM28.6958 60.2575C29.0343 60.4963 29.5022 60.4154 29.7409 60.0768C29.9796 59.7383 29.8988 59.2704 29.5602 59.0317L28.6958 60.2575ZM32.0238 60.6874C31.6749 60.4641 31.2111 60.5659 30.9878 60.9148C30.7645 61.2637 30.8664 61.7275 31.2153 61.9508L32.0238 60.6874ZM33.8077 63.5288C34.1662 63.7362 34.625 63.6136 34.8324 63.255C35.0398 62.8965 34.9172 62.4377 34.5586 62.2303L33.8077 63.5288ZM37.1598 63.6578C36.7923 63.4667 36.3395 63.6097 36.1484 63.9772C35.9573 64.3447 36.1003 64.7975 36.4678 64.9886L37.1598 63.6578ZM39.1908 66.3279C39.5664 66.5023 40.0124 66.3392 40.1869 65.9635C40.3613 65.5878 40.1982 65.1418 39.8225 64.9674L39.1908 66.3279ZM42.5413 66.1569C42.1582 65.9993 41.7199 66.1822 41.5624 66.5653C41.4049 66.9484 41.5877 67.3866 41.9708 67.5441L42.5413 66.1569ZM44.054 68.3651C44.4405 68.5141 44.8746 68.3215 45.0235 67.935C45.1725 67.5485 44.9799 67.1145 44.5934 66.9655L44.054 68.3651ZM45.9359 67.4829C45.5494 67.3339 45.1153 67.5265 44.9664 67.913C44.8174 68.2995 45.01 68.7336 45.3965 68.8826L45.9359 67.4829ZM0.0882001 1.40295C0.0620713 1.90985 0.0416386 2.41606 0.0268557 2.92149L1.52621 2.96535C1.54067 2.47103 1.56066 1.97595 1.58621 1.48017L0.0882001 1.40295ZM0.00575189 5.9559C0.0213394 6.97062 0.0596197 7.98158 0.120201 8.98818L1.61749 8.89807C1.55825 7.91376 1.52082 6.92517 1.50558 5.93286L0.00575189 5.9559ZM0.370354 12.0122C0.476627 13.021 0.605319 14.0246 0.756026 15.0225L2.23921 14.7985C2.09185 13.8228 1.96601 12.8414 1.8621 11.8551L0.370354 12.0122ZM1.27667 18.0132C1.47296 19.0079 1.69125 19.9961 1.93112 20.9771L3.3882 20.6209C3.15366 19.6616 2.94022 18.6953 2.74829 17.7228L1.27667 18.0132ZM2.71798 23.9085C3.00255 24.8808 3.30856 25.8454 3.63557 26.8014L5.05483 26.3159C4.73507 25.3811 4.43586 24.438 4.1576 23.4872L2.71798 23.9085ZM4.68191 29.6501C5.05224 30.5925 5.44335 31.5258 5.85478 32.4491L7.2249 31.8385C6.82257 30.9356 6.44013 30.0231 6.07799 29.1015L4.68191 29.6501ZM7.15185 35.1929C7.60481 36.0982 8.07778 36.9928 8.57033 37.8761L9.88042 37.1456C9.39875 36.2818 8.93624 35.4069 8.49329 34.5217L7.15185 35.1929ZM10.1073 40.4931C10.639 41.3538 11.1899 42.2026 11.7595 43.0387L12.9992 42.1942C12.4421 41.3765 11.9034 40.5465 11.3834 39.7047L10.1073 40.4931ZM13.5239 45.508C14.1301 46.3176 14.7546 47.1138 15.397 47.8961L16.5563 46.9443C15.9281 46.1792 15.3174 45.4006 14.7246 44.6089L13.5239 45.508ZM17.375 50.1981C18.0507 50.9498 18.7438 51.687 19.4538 52.409L20.5233 51.3573C19.8291 50.6513 19.1513 49.9304 18.4905 49.1953L17.375 50.1981ZM21.6296 54.5246C22.3696 55.2126 23.126 55.8848 23.8982 56.5406L24.8692 55.3973C24.1141 54.756 23.3745 54.0987 22.6509 53.426L21.6296 54.5246ZM26.2551 58.4529C27.0535 59.0715 27.8672 59.6732 28.6958 60.2575L29.5602 59.0317C28.7501 58.4604 27.9545 57.872 27.1738 57.2672L26.2551 58.4529ZM31.2153 61.9508C32.0654 62.4948 32.9296 63.021 33.8077 63.5288L34.5586 62.2303C33.7001 61.7338 32.855 61.2193 32.0238 60.6874L31.2153 61.9508ZM36.4678 64.9886C37.3625 65.4538 38.2703 65.9004 39.1908 66.3279L39.8225 64.9674C38.9224 64.5494 38.0347 64.1127 37.1598 63.6578L36.4678 64.9886ZM41.9708 67.5441C42.4385 67.7364 42.9091 67.9239 43.3827 68.1064L43.9222 66.7068C43.459 66.5283 42.9987 66.3449 42.5413 66.1569L41.9708 67.5441ZM43.3827 68.1064L44.054 68.3651L44.5934 66.9655L43.9222 66.7068L43.3827 68.1064ZM45.3965 68.8826L46.0677 69.1413L46.6071 67.7416L45.9359 67.4829L45.3965 68.8826ZM43.6525 67.4066L43.9222 66.7068L43.9222 66.7068L43.6525 67.4066ZM46.6416 69.127C47.0202 68.959 47.191 68.5159 47.023 68.1373L44.2858 61.9672C44.1179 61.5885 43.6748 61.4178 43.2961 61.5857C42.9175 61.7537 42.7467 62.1968 42.9147 62.5754L45.3477 68.06L39.8632 70.493C39.4845 70.661 39.3138 71.1041 39.4817 71.4827C39.6497 71.8613 40.0928 72.0321 40.4714 71.8642L46.6416 69.127ZM1.58621 1.48017C1.60753 1.0665 1.28948 0.713878 0.875814 0.692555C0.46215 0.671232 0.109523 0.989288 0.0882001 1.40295L1.58621 1.48017ZM0.0268557 2.92149C0.014746 3.33553 0.340572 3.68099 0.754609 3.6931C1.16865 3.70521 1.5141 3.37938 1.52621 2.96535L0.0268557 2.92149ZM1.50558 5.93286C1.49921 5.5187 1.15831 5.18811 0.744144 5.19447C0.329979 5.20084 -0.000610036 5.54174 0.00575189 5.9559L1.50558 5.93286ZM0.120201 8.98818C0.145086 9.40165 0.500438 9.71665 0.913904 9.69177C1.32737 9.66688 1.64238 9.31153 1.61749 8.89807L0.120201 8.98818ZM1.8621 11.8551C1.8187 11.4431 1.44958 11.1444 1.03765 11.1878C0.625712 11.2312 0.326955 11.6003 0.370354 12.0122L1.8621 11.8551ZM0.756026 15.0225C0.817878 15.4321 1.20004 15.714 1.60961 15.6521C2.01918 15.5903 2.30106 15.2081 2.23921 14.7985L0.756026 15.0225ZM2.74829 17.7228C2.66809 17.3164 2.27365 17.052 1.86727 17.1322C1.46089 17.2124 1.19647 17.6068 1.27667 18.0132L2.74829 17.7228ZM1.93112 20.9771C2.02949 21.3795 2.43542 21.6259 2.83778 21.5276C3.24015 21.4292 3.48658 21.0233 3.3882 20.6209L1.93112 20.9771ZM4.1576 23.4872C4.04126 23.0896 3.62467 22.8617 3.22714 22.978C2.8296 23.0944 2.60164 23.5109 2.71798 23.9085L4.1576 23.4872ZM3.63557 26.8014C3.76963 27.1933 4.19602 27.4023 4.58794 27.2683C4.97986 27.1342 5.18889 26.7078 5.05483 26.3159L3.63557 26.8014ZM6.07799 29.1015C5.9265 28.716 5.49117 28.5263 5.10565 28.6778C4.72013 28.8293 4.53042 29.2646 4.68191 29.6501L6.07799 29.1015ZM5.85478 32.4491C6.02338 32.8274 6.46677 32.9974 6.84512 32.8288C7.22347 32.6602 7.3935 32.2169 7.2249 31.8385L5.85478 32.4491ZM8.49329 34.5217C8.30794 34.1513 7.85738 34.0013 7.48696 34.1866C7.11653 34.372 6.9665 34.8225 7.15185 35.1929L8.49329 34.5217ZM8.57033 37.8761C8.77206 38.2379 9.22887 38.3676 9.59064 38.1659C9.95241 37.9641 10.0822 37.5073 9.88042 37.1456L8.57033 37.8761ZM11.3834 39.7047C11.1657 39.3523 10.7036 39.2431 10.3512 39.4608C9.99876 39.6785 9.88956 40.1407 10.1073 40.4931L11.3834 39.7047ZM11.7595 43.0387C11.9928 43.381 12.4593 43.4695 12.8016 43.2363C13.144 43.003 13.2324 42.5365 12.9992 42.1942L11.7595 43.0387ZM14.7246 44.6089C14.4763 44.2774 14.0063 44.2099 13.6747 44.4582C13.3432 44.7064 13.2756 45.1765 13.5239 45.508L14.7246 44.6089ZM15.397 47.8961C15.6598 48.2163 16.1324 48.2627 16.4526 47.9998C16.7727 47.737 16.8191 47.2644 16.5563 46.9443L15.397 47.8961ZM18.4905 49.1953C18.2136 48.8872 17.7394 48.862 17.4313 49.1389C17.1233 49.4158 17.0981 49.89 17.375 50.1981L18.4905 49.1953ZM19.4538 52.409C19.7442 52.7043 20.2191 52.7083 20.5144 52.4179C20.8098 52.1275 20.8137 51.6526 20.5233 51.3573L19.4538 52.409ZM22.6509 53.426C22.3476 53.144 21.873 53.1613 21.591 53.4647C21.3089 53.768 21.3262 54.2426 21.6296 54.5246L22.6509 53.426ZM23.8982 56.5406C24.2139 56.8088 24.6872 56.7702 24.9554 56.4545C25.2235 56.1388 25.1849 55.6655 24.8692 55.3973L23.8982 56.5406ZM27.1738 57.2672C26.8464 57.0135 26.3753 57.0733 26.1216 57.4007C25.8679 57.7281 25.9277 58.1992 26.2551 58.4529L27.1738 57.2672ZM28.6958 60.2575C29.0343 60.4963 29.5022 60.4154 29.7409 60.0768C29.9796 59.7383 29.8988 59.2704 29.5602 59.0317L28.6958 60.2575ZM32.0238 60.6874C31.6749 60.4641 31.2111 60.5659 30.9878 60.9148C30.7645 61.2637 30.8664 61.7275 31.2153 61.9508L32.0238 60.6874ZM33.8077 63.5288C34.1662 63.7362 34.625 63.6136 34.8324 63.255C35.0398 62.8965 34.9172 62.4377 34.5586 62.2303L33.8077 63.5288ZM37.1598 63.6578C36.7923 63.4667 36.3395 63.6097 36.1484 63.9772C35.9573 64.3447 36.1003 64.7975 36.4678 64.9886L37.1598 63.6578ZM39.1908 66.3279C39.5664 66.5023 40.0124 66.3392 40.1869 65.9635C40.3613 65.5878 40.1982 65.1418 39.8225 64.9674L39.1908 66.3279ZM42.5413 66.1569C42.1582 65.9993 41.7199 66.1822 41.5624 66.5653C41.4049 66.9484 41.5877 67.3866 41.9708 67.5441L42.5413 66.1569ZM44.054 68.3651C44.4405 68.5141 44.8746 68.3215 45.0235 67.935C45.1725 67.5485 44.9799 67.1145 44.5934 66.9655L44.054 68.3651ZM45.9359 67.4829C45.5494 67.3339 45.1153 67.5265 44.9664 67.913C44.8174 68.2995 45.01 68.7336 45.3965 68.8826L45.9359 67.4829ZM0.0882001 1.40295C0.0620713 1.90985 0.0416386 2.41606 0.0268557 2.92149L1.52621 2.96535C1.54067 2.47103 1.56066 1.97595 1.58621 1.48017L0.0882001 1.40295ZM0.00575189 5.9559C0.0213394 6.97062 0.0596197 7.98158 0.120201 8.98818L1.61749 8.89807C1.55825 7.91376 1.52082 6.92517 1.50558 5.93286L0.00575189 5.9559ZM0.370354 12.0122C0.476627 13.021 0.605319 14.0246 0.756026 15.0225L2.23921 14.7985C2.09185 13.8228 1.96601 12.8414 1.8621 11.8551L0.370354 12.0122ZM1.27667 18.0132C1.47296 19.0079 1.69125 19.9961 1.93112 20.9771L3.3882 20.6209C3.15366 19.6616 2.94022 18.6953 2.74829 17.7228L1.27667 18.0132ZM2.71798 23.9085C3.00255 24.8808 3.30856 25.8454 3.63557 26.8014L5.05483 26.3159C4.73507 25.3811 4.43586 24.438 4.1576 23.4872L2.71798 23.9085ZM4.68191 29.6501C5.05224 30.5925 5.44335 31.5258 5.85478 32.4491L7.2249 31.8385C6.82257 30.9356 6.44013 30.0231 6.07799 29.1015L4.68191 29.6501ZM7.15185 35.1929C7.60481 36.0982 8.07778 36.9928 8.57033 37.8761L9.88042 37.1456C9.39875 36.2818 8.93624 35.4069 8.49329 34.5217L7.15185 35.1929ZM10.1073 40.4931C10.639 41.3538 11.1899 42.2026 11.7595 43.0387L12.9992 42.1942C12.4421 41.3765 11.9034 40.5465 11.3834 39.7047L10.1073 40.4931ZM13.5239 45.508C14.1301 46.3176 14.7546 47.1138 15.397 47.8961L16.5563 46.9443C15.9281 46.1792 15.3174 45.4006 14.7246 44.6089L13.5239 45.508ZM17.375 50.1981C18.0507 50.9498 18.7438 51.687 19.4538 52.409L20.5233 51.3573C19.8291 50.6513 19.1513 49.9304 18.4905 49.1953L17.375 50.1981ZM21.6296 54.5246C22.3696 55.2126 23.126 55.8848 23.8982 56.5406L24.8692 55.3973C24.1141 54.756 23.3745 54.0987 22.6509 53.426L21.6296 54.5246ZM26.2551 58.4529C27.0535 59.0715 27.8672 59.6732 28.6958 60.2575L29.5602 59.0317C28.7501 58.4604 27.9545 57.872 27.1738 57.2672L26.2551 58.4529ZM31.2153 61.9508C32.0654 62.4948 32.9296 63.021 33.8077 63.5288L34.5586 62.2303C33.7001 61.7338 32.855 61.2193 32.0238 60.6874L31.2153 61.9508ZM36.4678 64.9886C37.3625 65.4538 38.2703 65.9004 39.1908 66.3279L39.8225 64.9674C38.9224 64.5494 38.0347 64.1127 37.1598 63.6578L36.4678 64.9886ZM41.9708 67.5441C42.4385 67.7364 42.9091 67.9239 43.3827 68.1064L43.9222 66.7068C43.459 66.5283 42.9987 66.3449 42.5413 66.1569L41.9708 67.5441ZM43.3827 68.1064L44.054 68.3651L44.5934 66.9655L43.9222 66.7068L43.3827 68.1064ZM45.3965 68.8826L46.0677 69.1413L46.6071 67.7416L45.9359 67.4829L45.3965 68.8826Z" fill="#985E51"/>
</svg>
