<svg width="402" height="402" viewBox="0 0 402 402" fill="none" xmlns="http://www.w3.org/2000/svg">
<path fill-rule="evenodd" clip-rule="evenodd" d="M0 0C55.5045 0 100.5 44.9953 100.5 100.5C44.9955 100.5 0 55.5047 0 0ZM201 0C145.495 0 100.5 44.9953 100.5 100.5C44.9955 100.5 0 145.495 0 201C0 256.504 44.9955 301.5 100.5 301.5C44.9955 301.5 0 346.496 0 402C55.5045 402 100.5 357.004 100.5 301.5C100.5 357.004 145.495 402 201 402C256.504 402 301.5 357.004 301.5 301.5C301.5 357.004 346.496 402 402 402C402 346.496 357.004 301.5 301.5 301.5C357.004 301.5 402 256.504 402 201C402 145.495 357.004 100.5 301.5 100.5C357.004 100.5 402 55.5047 402 0C346.496 0 301.5 44.9953 301.5 100.5C301.5 44.9953 256.504 0 201 0ZM301.5 301.5C301.5 245.996 256.504 201 201 201C201 256.504 245.996 301.5 301.5 301.5ZM201 201C256.504 201 301.5 156.005 301.5 100.5C301.5 156.005 346.496 201 402 201C346.496 201 301.5 245.996 301.5 301.5C245.996 301.5 201 346.496 201 402C201 346.496 156.005 301.5 100.5 301.5C156.005 301.5 201 256.504 201 201ZM201 201C145.495 201 100.5 245.996 100.5 301.5C100.5 245.996 55.5045 201 0 201C55.5045 201 100.5 156.005 100.5 100.5C100.5 156.005 145.495 201 201 201ZM201 201C201 145.495 245.996 100.5 301.5 100.5C245.996 100.5 201 55.5047 201 0C201 55.5047 156.005 100.5 100.5 100.5C156.005 100.5 201 145.495 201 201Z" fill="#341B1A" fill-opacity="0.25"/>
</svg>
