<svg width="58" height="25" viewBox="0 0 58 25" fill="none" xmlns="http://www.w3.org/2000/svg">
<path d="M9.47292 0.334117V0.0588235H12.44C12.9906 0.0588235 13.5341 0.0494129 14.0706 0.0305894C14.607 0.0117658 15.1506 0 15.7011 0C16.2117 0 16.7482 0.0517642 17.3129 0.157646C17.8753 0.263529 18.3906 0.439998 18.8564 0.689409C19.3223 0.938821 19.7035 1.27294 20.007 1.69176C20.3082 2.11059 20.4588 2.63529 20.4588 3.26353C20.4588 3.82588 20.3106 4.30117 20.0164 4.68705C19.7223 5.07294 19.3647 5.39058 18.9458 5.64C18.527 5.88941 18.0917 6.07999 17.64 6.20941C17.1882 6.34117 16.8047 6.42588 16.4894 6.46588V6.54352C17 6.58352 17.5317 6.66823 18.08 6.79999C18.6306 6.93176 19.1341 7.13646 19.5929 7.41882C20.0517 7.70117 20.4306 8.07058 20.7317 8.5294C21.0329 8.98823 21.1835 9.5647 21.1835 10.2588C21.1835 11.0188 20.9906 11.647 20.6047 12.1459C20.2188 12.6447 19.7458 13.0376 19.1906 13.3247C18.6329 13.6141 18.04 13.8118 17.4117 13.9247C16.7835 14.0353 16.2188 14.0918 15.7223 14.0918C15.1717 14.0918 14.6259 14.0847 14.0823 14.0729C13.5388 14.0588 12.9906 14.0541 12.4423 14.0541H9.47527V13.7788H11.2823V0.338824H9.47527L9.47292 0.334117ZM14.9364 6.4047C15.527 6.4047 15.9906 6.32705 16.3317 6.16941C16.6729 6.01176 16.927 5.79999 17.0988 5.53176C17.2682 5.26352 17.3764 4.95764 17.4235 4.61882C17.4682 4.27764 17.4917 3.93176 17.4917 3.57647C17.4917 3 17.4517 2.50588 17.3741 2.09176C17.2964 1.68 17.1647 1.33882 16.9811 1.07059C16.7976 0.802353 16.5459 0.602352 16.2235 0.470588C15.9035 0.338823 15.4941 0.272942 14.9953 0.272942C14.8517 0.272942 14.7059 0.279997 14.5623 0.291762C14.4188 0.30588 14.2729 0.317648 14.1294 0.331765V6.4047H14.9341H14.9364ZM15.2706 13.8329C15.6894 13.8329 16.0659 13.7835 16.4 13.6847C16.7341 13.5859 17.0188 13.4 17.2541 13.1247C17.4894 12.8494 17.6706 12.4659 17.7953 11.9741C17.92 11.4823 17.9811 10.8376 17.9811 10.0376C17.9811 9.81411 17.9623 9.51764 17.9223 9.14352C17.8823 8.7694 17.7741 8.39999 17.5976 8.03293C17.4211 7.66588 17.1529 7.34823 16.7929 7.07999C16.4329 6.81176 15.9247 6.67764 15.2706 6.67764H14.1317V13.7718C14.4847 13.8118 14.8659 13.8306 15.2706 13.8306V13.8329Z" fill="url(#paint0_linear_2039_811)"/>
<path d="M29.6141 0.0588194V0.334113H27.807V13.7741H31.0494C31.4823 13.7741 31.9176 13.7012 32.3552 13.5576C32.7929 13.4141 33.207 13.1741 33.5929 12.84C33.9788 12.5059 34.327 12.0729 34.6352 11.5435C34.9435 11.0141 35.1811 10.367 35.3529 9.60705H35.6094V14.047H23.1505V13.7717H24.9576V0.331761H23.1505V0.0564642H29.6164L29.6141 0.0588194Z" fill="url(#paint1_linear_2039_811)"/>
<path d="M37.12 0.334117V0.0588235H40.087C40.6376 0.0588235 41.1811 0.0494129 41.7176 0.0305894C42.2541 0.0117658 42.7976 0 43.3482 0C43.8588 0 44.3953 0.0517642 44.96 0.157646C45.5223 0.263529 46.0376 0.439998 46.5035 0.689409C46.9694 0.938821 47.3505 1.27294 47.6541 1.69176C47.9552 2.11059 48.1058 2.63529 48.1058 3.26353C48.1058 3.82588 47.9576 4.30117 47.6635 4.68705C47.3694 5.07294 47.0117 5.39058 46.5929 5.64C46.1741 5.88941 45.7388 6.07999 45.287 6.20941C44.8353 6.34117 44.4517 6.42588 44.1364 6.46588V6.54352C44.647 6.58352 45.1788 6.66823 45.727 6.79999C46.2776 6.93176 46.7811 7.13646 47.24 7.41882C47.6988 7.70117 48.0776 8.07058 48.3788 8.5294C48.68 8.98823 48.8305 9.5647 48.8305 10.2588C48.8305 11.0188 48.6376 11.647 48.2517 12.1459C47.8658 12.6447 47.3929 13.0376 46.8376 13.3247C46.28 13.6141 45.687 13.8118 45.0588 13.9247C44.4305 14.0353 43.8658 14.0918 43.3694 14.0918C42.8188 14.0918 42.2729 14.0847 41.7294 14.0729C41.1858 14.0588 40.6376 14.0541 40.0894 14.0541H37.1223V13.7788H38.9294V0.338824H37.1223L37.12 0.334117ZM42.5835 6.4047C43.1741 6.4047 43.6376 6.32705 43.9788 6.16941C44.32 6.01176 44.5741 5.79999 44.7458 5.53176C44.9153 5.26352 45.0235 4.95764 45.0705 4.61882C45.1153 4.27764 45.1388 3.93176 45.1388 3.57647C45.1388 3 45.0988 2.50588 45.0211 2.09176C44.9435 1.68 44.8117 1.33882 44.6282 1.07059C44.4447 0.802353 44.1929 0.602352 43.8705 0.470588C43.5505 0.338823 43.1411 0.272942 42.6423 0.272942C42.4988 0.272942 42.3529 0.279997 42.2094 0.291762C42.0658 0.30588 41.92 0.317648 41.7764 0.331765V6.4047H42.5811H42.5835ZM42.9176 13.8329C43.3364 13.8329 43.7129 13.7835 44.047 13.6847C44.3811 13.5859 44.6658 13.4 44.9011 13.1247C45.1364 12.8494 45.3176 12.4659 45.4423 11.9741C45.567 11.4823 45.6282 10.8376 45.6282 10.0376C45.6282 9.81411 45.6094 9.51764 45.5694 9.14352C45.5294 8.7694 45.4211 8.39999 45.2447 8.03293C45.0682 7.66588 44.8 7.34823 44.44 7.07999C44.08 6.81176 43.5717 6.67764 42.9176 6.67764H41.7788V13.7718C42.1317 13.8118 42.5129 13.8306 42.9176 13.8306V13.8329Z" fill="url(#paint2_linear_2039_811)"/>
<path d="M0.00470509 19.7741V19.6729H1.09412C1.29647 19.6729 1.49647 19.6682 1.69176 19.6612C1.88941 19.6541 2.08941 19.6494 2.28941 19.6494C2.47765 19.6494 2.67294 19.6682 2.88 19.7059C3.08706 19.7435 3.27529 19.8094 3.44706 19.9012C3.61647 19.9929 3.75764 20.1153 3.86823 20.2682C3.97882 20.4212 4.03294 20.6141 4.03294 20.8447C4.03294 21.0518 3.97882 21.2259 3.87059 21.3671C3.76235 21.5082 3.63058 21.6259 3.47764 21.7176C3.3247 21.8094 3.1647 21.8776 2.99764 21.9271C2.83294 21.9741 2.69176 22.0071 2.57647 22.0212V22.0494C2.7647 22.0635 2.95764 22.0941 3.16 22.1435C3.36235 22.1906 3.54588 22.2682 3.71529 22.3718C3.88235 22.4753 4.02353 22.6118 4.13411 22.7788C4.2447 22.9482 4.29882 23.1576 4.29882 23.4141C4.29882 23.6918 4.22823 23.9247 4.08706 24.1059C3.94588 24.2894 3.77176 24.4329 3.56705 24.5388C3.36235 24.6447 3.14588 24.7176 2.91529 24.7576C2.6847 24.7976 2.47764 24.8188 2.29411 24.8188C2.09176 24.8188 1.89176 24.8165 1.69176 24.8118C1.49176 24.8071 1.29176 24.8047 1.08941 24.8047H0V24.7035H0.663529V19.7718H0L0.00470509 19.7741ZM2.00941 22.0023C2.22588 22.0023 2.39529 21.9741 2.52235 21.9153C2.64705 21.8565 2.74117 21.7788 2.80235 21.68C2.86588 21.5812 2.90353 21.4706 2.92235 21.3459C2.93882 21.2212 2.94823 21.0941 2.94823 20.9647C2.94823 20.7529 2.93411 20.5718 2.90588 20.4212C2.87764 20.2706 2.82823 20.1459 2.76235 20.0471C2.69411 19.9482 2.60235 19.8753 2.4847 19.8282C2.36706 19.7812 2.21647 19.7553 2.03529 19.7553C1.98118 19.7553 1.92941 19.7576 1.87765 19.7623C1.82353 19.7671 1.77176 19.7718 1.72 19.7765V22.0047H2.01647L2.00941 22.0023ZM2.13176 24.727C2.28471 24.727 2.42353 24.7082 2.54588 24.6729C2.66823 24.6376 2.77176 24.5694 2.85882 24.4682C2.94588 24.367 3.01176 24.2259 3.05647 24.0471C3.10117 23.8659 3.1247 23.6306 3.1247 23.3365C3.1247 23.2541 3.11764 23.1459 3.10353 23.0094C3.08941 22.8729 3.04941 22.7365 2.98353 22.6023C2.91764 22.4682 2.82118 22.3506 2.68706 22.2518C2.55529 22.1529 2.36941 22.1035 2.12941 22.1035H1.71059V24.7059C1.84 24.72 1.97882 24.727 2.12941 24.727H2.13176Z" fill="url(#paint3_linear_2039_811)"/>
<path d="M6.31999 21.7153V22.32H6.33412C6.42117 22.1365 6.53647 21.9812 6.6847 21.8471C6.83058 21.7153 7.02352 21.6494 7.26588 21.6494C7.46823 21.6494 7.63058 21.7035 7.75529 21.8118C7.87999 21.92 7.94352 22.0706 7.94352 22.2612C7.94352 22.4047 7.90823 22.5176 7.83999 22.6C7.76941 22.6824 7.65882 22.7224 7.50588 22.7224C7.39529 22.7224 7.29411 22.6988 7.20235 22.6541C7.11058 22.6094 7.06588 22.5224 7.06588 22.3977C7.06588 22.3835 7.06823 22.3576 7.07294 22.3224C7.07764 22.2871 7.0847 22.2471 7.09176 22.2071C7.09882 22.1671 7.10588 22.1294 7.11058 22.0965C7.11529 22.0635 7.11764 22.0447 7.11764 22.0377C7.11294 22 7.10588 21.9694 7.09647 21.9482C7.08705 21.9271 7.07058 21.9082 7.04941 21.8894C7.02823 21.8729 6.99529 21.8635 6.95294 21.8635C6.90588 21.8635 6.8447 21.8871 6.77176 21.9318C6.69882 21.9765 6.63294 22.0424 6.56941 22.1294C6.50588 22.2165 6.45176 22.32 6.40706 22.4424C6.36235 22.5647 6.33882 22.7035 6.33882 22.8565V24.7012H6.90823V24.8024H4.99059V24.7012H5.45882V21.8094H4.99059V21.7082H6.3247L6.31999 21.7153Z" fill="url(#paint4_linear_2039_811)"/>
<path d="M10.5906 21.7459C10.8047 21.8353 10.9906 21.9529 11.1482 22.1035C11.3059 22.2517 11.4306 22.4259 11.52 22.6259C11.6094 22.8259 11.6541 23.0353 11.6541 23.2564C11.6541 23.4776 11.6094 23.6941 11.52 23.8941C11.4306 24.0941 11.3082 24.2682 11.1482 24.4164C10.9906 24.5647 10.8023 24.6823 10.5906 24.7694C10.3765 24.8564 10.1459 24.8988 9.89411 24.8988C9.64234 24.8988 9.41176 24.8564 9.19764 24.7694C8.98352 24.6823 8.79764 24.5647 8.63999 24.4164C8.48234 24.2682 8.35764 24.0941 8.26823 23.8941C8.17881 23.6941 8.13411 23.4823 8.13411 23.2564C8.13411 23.0306 8.17881 22.8259 8.26823 22.6259C8.35764 22.4259 8.47999 22.2517 8.63999 22.1035C8.79764 21.9553 8.98587 21.8353 9.19764 21.7459C9.41176 21.6565 9.64234 21.6117 9.89411 21.6117C10.1459 21.6117 10.3765 21.6565 10.5906 21.7459ZM10.3341 24.6729C10.44 24.5835 10.5176 24.4682 10.5694 24.3223C10.6212 24.1764 10.6518 24.0117 10.6635 23.8259C10.6753 23.6376 10.6823 23.4494 10.6823 23.2564C10.6823 23.0635 10.6753 22.8753 10.6635 22.6917C10.6518 22.5059 10.6212 22.3412 10.5694 22.1976C10.5176 22.0541 10.44 21.9364 10.3341 21.847C10.2282 21.7576 10.0823 21.7129 9.89411 21.7129C9.70587 21.7129 9.55999 21.7576 9.45411 21.847C9.34823 21.9364 9.27058 22.0517 9.21881 22.1976C9.16705 22.3435 9.13646 22.5059 9.12469 22.6917C9.11293 22.8776 9.10587 23.0659 9.10587 23.2564C9.10587 23.447 9.11293 23.6376 9.12469 23.8259C9.13646 24.0141 9.16705 24.1788 9.21881 24.3223C9.27058 24.4659 9.34823 24.5835 9.45411 24.6729C9.55999 24.7623 9.70587 24.807 9.89411 24.807C10.0823 24.807 10.2282 24.7623 10.3341 24.6729Z" fill="url(#paint5_linear_2039_811)"/>
<path d="M11.8635 21.8141V21.7129H13.6941V21.8141H13.2259L13.9694 23.6894L14.5388 22.1529L14.3953 21.8141H14.0282V21.7129H15.8306V21.8141H15.3482L16.0917 23.6894L16.7835 21.8141H16.28V21.7129H17.2541V21.8141H16.9012L15.72 25H15.6706L14.6047 22.3035L13.6023 25H13.5529L12.2988 21.8141H11.8729H11.8635Z" fill="url(#paint6_linear_2039_811)"/>
<path d="M21.48 23.1247C21.5529 22.887 21.5882 22.5859 21.5882 22.2212C21.5882 22.0188 21.5718 21.8565 21.5412 21.7341C21.5106 21.6118 21.4635 21.5176 21.4 21.4494C21.3365 21.3812 21.2588 21.3365 21.1647 21.3129C21.0706 21.2894 20.9623 21.2776 20.8376 21.2776V21.1765H22.2941V21.2776C22.1835 21.2965 22.0918 21.3176 22.0212 21.3388C21.9482 21.36 21.8894 21.4023 21.8447 21.4612C21.8 21.5223 21.7647 21.607 21.7435 21.72C21.7223 21.8329 21.7059 21.9929 21.6965 22.2C21.6918 22.2965 21.6823 22.4094 21.6706 22.5435C21.6588 22.6753 21.64 22.8118 21.6118 22.9553C21.5859 23.0965 21.5482 23.2353 21.5035 23.3741C21.4588 23.5106 21.4 23.6353 21.3271 23.7459L21.6588 24.3294C21.6776 24.3623 21.7106 24.4071 21.76 24.4588C21.8071 24.5129 21.8753 24.5388 21.9623 24.5388C22.0353 24.5388 22.0918 24.5153 22.1365 24.4659C22.1788 24.4188 22.2141 24.3623 22.24 24.3012C22.2659 24.2376 22.2823 24.1788 22.2894 24.12C22.2965 24.0612 22.3012 24.0235 22.3012 24.0047C22.3012 23.9812 22.3012 23.96 22.2965 23.9388C22.2941 23.92 22.2871 23.8988 22.2776 23.8729H22.3788C22.3788 23.8729 22.3882 23.8988 22.3929 23.92C22.3976 23.9412 22.4 23.9647 22.4 23.9882C22.4 24.0071 22.3953 24.0659 22.3859 24.1647C22.3765 24.2635 22.3412 24.367 22.2823 24.4776C22.2212 24.5882 22.1294 24.687 22.0023 24.7765C21.8753 24.8659 21.6965 24.9106 21.4659 24.9106C21.2541 24.9106 21.0918 24.8682 20.9765 24.7835C20.8612 24.6988 20.76 24.6 20.6729 24.4847C20.6 24.5412 20.5294 24.5953 20.4612 24.647C20.3906 24.6965 20.3129 24.7412 20.2235 24.7812C20.1341 24.8188 20.0329 24.8518 19.9176 24.8753C19.8023 24.8988 19.6682 24.9106 19.5129 24.9106C19.1482 24.9106 18.8518 24.8518 18.6259 24.7341C18.4 24.6165 18.2235 24.4753 18.0965 24.3082C17.9694 24.1435 17.8824 23.9718 17.8376 23.7929C17.7929 23.6141 17.7694 23.4635 17.7694 23.3388C17.7694 23.1176 17.8141 22.92 17.9035 22.7435C17.9929 22.567 18.1059 22.4094 18.2423 22.2682C18.3788 22.127 18.5294 22 18.6918 21.8871C18.8541 21.7741 19.0141 21.6706 19.1671 21.5741C19.0894 21.3718 19.0329 21.2094 18.9929 21.087C18.9553 20.9647 18.9341 20.84 18.9341 20.7153C18.9341 20.567 18.9647 20.4235 19.0235 20.2871C19.0847 20.1506 19.1647 20.0282 19.2659 19.92C19.3671 19.8118 19.4823 19.7247 19.6118 19.6612C19.7412 19.5953 19.8729 19.5647 20.0094 19.5647C20.1012 19.5647 20.1882 19.5788 20.2682 19.6047C20.3506 19.6306 20.4212 19.6729 20.4847 19.7318C20.5482 19.7906 20.5953 19.8659 20.6329 19.96C20.6682 20.0541 20.6871 20.167 20.6871 20.3035C20.6871 20.447 20.6471 20.6 20.5671 20.7623C20.4871 20.9223 20.3176 21.0894 20.0588 21.2635L21.2706 23.6353C21.3388 23.5388 21.4071 23.3718 21.48 23.1341V23.1247ZM19.2659 21.7835C19.2376 21.7176 19.2165 21.6753 19.2 21.6494C19.0988 21.727 19.0118 21.7953 18.9365 21.8588C18.8612 21.9223 18.8 21.9882 18.7482 22.0565C18.6988 22.127 18.6612 22.2023 18.6376 22.287C18.6141 22.3718 18.6024 22.4706 18.6024 22.5859C18.6024 22.6729 18.6188 22.7859 18.6518 22.9294C18.6847 23.0706 18.7318 23.2212 18.7929 23.3788C18.8541 23.5365 18.9247 23.6965 19.0094 23.8541C19.0941 24.0118 19.1859 24.1553 19.2824 24.2823C19.3812 24.4094 19.4871 24.5153 19.6 24.5953C19.7129 24.6776 19.8259 24.7176 19.9435 24.7176C20.0729 24.7176 20.1906 24.687 20.2941 24.6282C20.3976 24.567 20.5082 24.4894 20.6282 24.3929C20.5812 24.3247 20.5435 24.2682 20.5176 24.2235C20.4918 24.1788 20.4659 24.1294 20.4423 24.0753L19.36 21.9765C19.3271 21.9082 19.2941 21.8423 19.2659 21.7788V21.7835ZM20.5647 20.0776C20.5459 20 20.5176 19.9318 20.4776 19.8682C20.44 19.8047 20.3906 19.7553 20.3294 19.7176C20.2682 19.68 20.1953 19.6612 20.1106 19.6612C20.0965 19.6612 20.0635 19.6635 20.0141 19.6682C19.9647 19.6729 19.9106 19.6918 19.8565 19.7223C19.8023 19.7529 19.7529 19.8047 19.7082 19.8729C19.6659 19.9435 19.6424 20.04 19.6424 20.1647C19.6424 20.2376 19.6541 20.3153 19.6753 20.4C19.6965 20.4847 19.7247 20.5718 19.7623 20.6588C19.7976 20.7482 19.84 20.8376 19.8847 20.9247C19.9294 21.0141 19.9741 21.0941 20.0188 21.167C20.0659 21.1341 20.1247 21.0918 20.1929 21.0447C20.2612 20.9976 20.3247 20.9388 20.3835 20.8682C20.4447 20.7976 20.4941 20.7176 20.5341 20.6259C20.5741 20.5341 20.5953 20.4282 20.5953 20.3082C20.5953 20.2306 20.5859 20.1553 20.5671 20.0776H20.5647Z" fill="url(#paint7_linear_2039_811)"/>
<path d="M25.6823 19.6753V19.7765H25.0188V24.7082H26.2094C26.367 24.7082 26.527 24.6823 26.6894 24.6282C26.8494 24.5764 27.0023 24.487 27.1435 24.3647C27.2847 24.2423 27.4117 24.0847 27.5247 23.8894C27.6376 23.6941 27.7247 23.4588 27.7882 23.1788H27.8823V24.807H23.3129V24.7059H23.9765V19.7741H23.3129V19.6729H25.6847L25.6823 19.6753Z" fill="url(#paint8_linear_2039_811)"/>
<path d="M31.5459 24.8706C31.4188 24.8894 31.2988 24.8988 31.1882 24.8988C30.9435 24.8988 30.7623 24.8565 30.6447 24.7694C30.527 24.6823 30.4541 24.5623 30.4259 24.4094H30.4117C30.3341 24.6023 30.2282 24.7318 30.0941 24.7976C29.96 24.8659 29.7647 24.8988 29.5106 24.8988C29.3953 24.8988 29.2776 24.8871 29.1576 24.8635C29.0376 24.84 28.927 24.8023 28.8259 24.7482C28.7247 24.6965 28.6423 24.6212 28.5811 24.5294C28.5176 24.4353 28.487 24.3224 28.487 24.1859C28.487 24.0494 28.5153 23.9294 28.5694 23.8353C28.6235 23.7412 28.6964 23.6612 28.7859 23.5976C28.8753 23.5318 28.9764 23.48 29.0894 23.44C29.2023 23.4 29.32 23.36 29.44 23.32C29.6376 23.2612 29.7976 23.2141 29.92 23.1718C30.0423 23.1318 30.1364 23.0871 30.2047 23.0424C30.2729 22.9976 30.3176 22.9459 30.3459 22.8871C30.3717 22.8306 30.3859 22.7553 30.3859 22.6635V22.2235C30.3859 22.0941 30.3553 21.9765 30.2917 21.8706C30.2282 21.7647 30.1106 21.7129 29.9388 21.7129C29.8282 21.7129 29.7317 21.7388 29.6494 21.7882C29.567 21.8376 29.527 21.9318 29.527 22.0659C29.527 22.08 29.527 22.1059 29.5341 22.1412C29.5388 22.1765 29.5435 22.2165 29.5482 22.2612C29.5529 22.3035 29.5576 22.3459 29.5623 22.3835C29.567 22.4212 29.5694 22.4494 29.5694 22.4635C29.5694 22.5365 29.5529 22.5929 29.52 22.6329C29.487 22.6729 29.447 22.7035 29.4 22.7224C29.3553 22.7412 29.3059 22.7529 29.2564 22.7553C29.207 22.7576 29.1647 22.76 29.1294 22.76C29.0823 22.76 29.0329 22.7553 28.9811 22.7482C28.9317 22.7412 28.887 22.7247 28.847 22.6988C28.8094 22.6729 28.7764 22.6353 28.7506 22.5882C28.7247 22.5412 28.7106 22.4753 28.7106 22.3929C28.7106 22.2682 28.7459 22.1553 28.8141 22.0588C28.8847 21.96 28.9764 21.8776 29.0917 21.8141C29.207 21.7482 29.3388 21.7012 29.4847 21.6659C29.6306 21.6329 29.7835 21.6165 29.9435 21.6165C30.127 21.6165 30.2988 21.6306 30.4588 21.6588C30.6188 21.6871 30.76 21.7412 30.8776 21.8165C30.9953 21.8941 31.0894 21.9976 31.1576 22.1294C31.2282 22.2612 31.2611 22.4282 31.2611 22.6306V24.4188C31.2611 24.5106 31.2753 24.5906 31.3011 24.6612C31.327 24.7318 31.3929 24.7647 31.4988 24.7647C31.5623 24.7647 31.6117 24.7529 31.6541 24.7294C31.6941 24.7059 31.7341 24.6729 31.7741 24.6282L31.84 24.6941C31.7717 24.7953 31.6753 24.8541 31.5482 24.8753L31.5459 24.8706ZM30.367 23.0188C30.3576 23.0471 30.3388 23.0753 30.3129 23.1012C30.287 23.1271 30.24 23.1576 30.1717 23.1906C30.08 23.2329 29.9882 23.2753 29.8988 23.3176C29.807 23.3576 29.7247 23.4094 29.6541 23.4729C29.5811 23.5365 29.5223 23.6118 29.4776 23.7035C29.4329 23.7953 29.4094 23.9129 29.4094 24.0565C29.4094 24.1153 29.4141 24.1812 29.4211 24.2588C29.4282 24.3365 29.447 24.4094 29.48 24.4823C29.5106 24.5553 29.5576 24.6165 29.6211 24.6659C29.6847 24.7153 29.7694 24.7412 29.88 24.7412C29.9435 24.7412 30.0047 24.7271 30.0635 24.6988C30.1247 24.6706 30.1764 24.6259 30.2259 24.5647C30.2729 24.5035 30.3129 24.4259 30.3411 24.3271C30.3694 24.2282 30.3835 24.1106 30.3835 23.9694V23.0188H30.3694H30.367Z" fill="url(#paint9_linear_2039_811)"/>
<path d="M32.3435 23.7623C32.4023 23.8965 32.4588 24.0259 32.52 24.1506C32.5812 24.2753 32.6517 24.3859 32.7317 24.4823C32.8141 24.5788 32.9129 24.6565 33.0282 24.7176C33.1435 24.7788 33.2847 24.807 33.4541 24.807C33.4964 24.807 33.5553 24.8047 33.6282 24.8C33.7012 24.7953 33.7717 24.7741 33.84 24.7388C33.9106 24.7035 33.9694 24.647 34.0212 24.5741C34.0706 24.4988 34.0964 24.3929 34.0964 24.2541C34.0964 24.2117 34.0894 24.167 34.0776 24.12C34.0659 24.0753 34.04 24.0282 34.0023 23.9788C33.9647 23.9318 33.9082 23.8847 33.8329 23.8376C33.7576 23.7929 33.6565 23.7459 33.527 23.6965L32.9435 23.48C32.8753 23.4565 32.8047 23.4235 32.727 23.3835C32.6494 23.3435 32.5788 23.2894 32.5153 23.2212C32.4494 23.1529 32.3953 23.0729 32.3529 22.9788C32.3106 22.8847 32.287 22.7741 32.287 22.6447C32.287 22.5059 32.3153 22.3741 32.3741 22.247C32.4329 22.1223 32.5129 22.0118 32.6164 21.92C32.72 21.8259 32.8447 21.7529 32.9906 21.6965C33.1364 21.6423 33.2964 21.6141 33.4706 21.6141C33.5623 21.6141 33.647 21.6235 33.727 21.6423C33.807 21.6612 33.8776 21.6823 33.9435 21.7035C34.0094 21.7247 34.0659 21.7459 34.1176 21.7647C34.167 21.7835 34.207 21.7929 34.2376 21.7929C34.2894 21.7929 34.3247 21.7835 34.3388 21.7647C34.3529 21.7459 34.3647 21.7247 34.3741 21.6988H34.4753V22.5788H34.3812C34.3341 22.4635 34.2847 22.3529 34.2329 22.247C34.1835 22.1412 34.1223 22.0494 34.0517 21.9694C33.9812 21.8894 33.8964 21.8282 33.7953 21.7812C33.6941 21.7365 33.5694 21.7129 33.4212 21.7129C33.2635 21.7129 33.1176 21.7553 32.9859 21.84C32.8541 21.9247 32.7882 22.047 32.7882 22.2118C32.7882 22.2447 32.7929 22.2847 32.8023 22.327C32.8117 22.3694 32.8329 22.4141 32.8682 22.4612C32.9012 22.5059 32.9553 22.5529 33.0259 22.5976C33.0988 22.6423 33.1929 22.687 33.3153 22.7317L33.927 22.9412C34.1859 23.0329 34.3835 23.1529 34.5176 23.3012C34.6517 23.4494 34.72 23.64 34.72 23.8706C34.72 24.0282 34.6847 24.1717 34.6164 24.2988C34.5459 24.4259 34.4564 24.5341 34.3435 24.6235C34.2306 24.7129 34.0988 24.7812 33.9506 24.8282C33.8023 24.8753 33.647 24.9012 33.4894 24.9012C33.4023 24.9012 33.3082 24.8917 33.2094 24.8729C33.1082 24.8541 33.0117 24.8306 32.9176 24.8047C32.8235 24.7788 32.7388 24.7553 32.6612 24.7365C32.5835 24.7176 32.5247 24.7082 32.48 24.7082C32.4423 24.7082 32.4141 24.7153 32.3976 24.7294C32.3812 24.7435 32.3647 24.7694 32.3506 24.8094H32.2494V23.7647H32.3506L32.3435 23.7623Z" fill="url(#paint10_linear_2039_811)"/>
<path d="M35.7388 24.7059V19.7106H35.2635V19.6094H36.6188V22.407H36.6329C36.6517 22.3647 36.6847 22.3012 36.7294 22.2165C36.7741 22.1318 36.8447 22.0494 36.9341 21.9647C37.0258 21.88 37.1411 21.807 37.2847 21.7459C37.4258 21.6823 37.6047 21.6518 37.8211 21.6518C38.1388 21.6518 38.3835 21.7435 38.56 21.9247C38.7364 22.1082 38.8235 22.3576 38.8235 22.6753V24.7082H39.3058V24.8094H37.4964V24.7082H37.9435V22.4306C37.9435 22.2282 37.9035 22.08 37.8211 21.9882C37.7388 21.8941 37.6282 21.847 37.4894 21.847C37.3741 21.847 37.2635 21.8753 37.1576 21.9294C37.0517 21.9859 36.96 22.0682 36.88 22.1788C36.8 22.2894 36.7364 22.4259 36.6894 22.5906C36.6423 22.7529 36.6164 22.9459 36.6164 23.167V24.7106H37.0705V24.8118H35.2611V24.7106H35.7364L35.7388 24.7059Z" fill="url(#paint11_linear_2039_811)"/>
<path d="M41.7929 19.7741V19.6729H42.8823C43.0847 19.6729 43.2847 19.6682 43.4799 19.6612C43.6776 19.6541 43.8776 19.6494 44.0776 19.6494C44.2658 19.6494 44.4611 19.6682 44.6682 19.7059C44.8752 19.7435 45.0635 19.8094 45.2329 19.9012C45.4023 19.9929 45.5435 20.1153 45.6541 20.2682C45.7646 20.4212 45.8188 20.6141 45.8188 20.8447C45.8188 21.0518 45.7647 21.2259 45.6564 21.3671C45.5482 21.5082 45.4164 21.6259 45.2635 21.7176C45.1105 21.8094 44.9505 21.8776 44.7835 21.9271C44.6188 21.9741 44.4776 22.0071 44.3623 22.0212V22.0494C44.5505 22.0635 44.7435 22.0941 44.9458 22.1435C45.1482 22.1906 45.3317 22.2682 45.5011 22.3718C45.6682 22.4753 45.8094 22.6118 45.9199 22.7788C46.0305 22.9482 46.0847 23.1576 46.0847 23.4141C46.0847 23.6918 46.0141 23.9247 45.8729 24.1059C45.7317 24.2894 45.5576 24.4329 45.3529 24.5388C45.1482 24.6447 44.9317 24.7176 44.7011 24.7576C44.4705 24.7976 44.2635 24.8188 44.0799 24.8188C43.8776 24.8188 43.6776 24.8165 43.4776 24.8118C43.2776 24.8071 43.0776 24.8047 42.8752 24.8047H41.7858V24.7035H42.4494V19.7718H41.7858L41.7929 19.7741ZM43.7976 22.0023C44.0141 22.0023 44.1835 21.9741 44.3105 21.9153C44.4352 21.8565 44.5294 21.7788 44.5905 21.68C44.6541 21.5812 44.6917 21.4706 44.7105 21.3459C44.727 21.2212 44.7364 21.0941 44.7364 20.9647C44.7364 20.7529 44.7223 20.5718 44.6941 20.4212C44.6658 20.2706 44.6164 20.1459 44.5505 20.0471C44.4823 19.9482 44.3905 19.8753 44.2729 19.8282C44.1552 19.7812 44.0047 19.7553 43.8235 19.7553C43.7694 19.7553 43.7176 19.7576 43.6658 19.7623C43.6117 19.7671 43.5599 19.7718 43.5082 19.7765V22.0047H43.8047L43.7976 22.0023ZM43.9199 24.727C44.0729 24.727 44.2117 24.7082 44.3341 24.6729C44.4564 24.6376 44.5599 24.5694 44.647 24.4682C44.7341 24.367 44.7999 24.2259 44.8446 24.0471C44.8894 23.8659 44.9129 23.6306 44.9129 23.3365C44.9129 23.2541 44.9058 23.1459 44.8917 23.0094C44.8776 22.8729 44.8376 22.7365 44.7717 22.6023C44.7058 22.4682 44.6094 22.3506 44.4752 22.2518C44.3435 22.1529 44.1576 22.1035 43.9176 22.1035H43.4988V24.7059C43.6282 24.72 43.767 24.727 43.9176 24.727H43.9199Z" fill="url(#paint12_linear_2039_811)"/>
<path d="M48.0352 21.7153V24C48.0352 24.1835 48.0705 24.3388 48.1435 24.4659C48.2164 24.5929 48.3435 24.6565 48.5247 24.6565C48.6352 24.6565 48.7364 24.6306 48.8282 24.5765C48.92 24.5247 48.9976 24.4517 49.0635 24.3647C49.1294 24.2753 49.1788 24.1717 49.2141 24.0517C49.2494 23.9317 49.2682 23.807 49.2682 23.6776V21.8188H48.7929V21.7176H50.1482V24.7082H50.6235V24.8094H49.2823V24.2259H49.2682C49.2305 24.3317 49.1717 24.4235 49.0941 24.5035C49.0164 24.5835 48.9294 24.6494 48.8305 24.7059C48.7317 24.7623 48.6282 24.8023 48.5176 24.8282C48.407 24.8541 48.2988 24.8682 48.1929 24.8682C47.8564 24.8682 47.6 24.7953 47.4211 24.6494C47.2423 24.5035 47.1552 24.2541 47.1552 23.9035V21.8212H46.6729V21.72H48.0352V21.7153Z" fill="url(#paint13_linear_2039_811)"/>
<path d="M52.5129 21.7153V22.32H52.527C52.6141 22.1365 52.7294 21.9812 52.8776 21.8471C53.0235 21.7153 53.2164 21.6494 53.4588 21.6494C53.6611 21.6494 53.8235 21.7035 53.9482 21.8118C54.0729 21.92 54.1364 22.0706 54.1364 22.2612C54.1364 22.4047 54.1011 22.5176 54.0329 22.6C53.9623 22.6824 53.8517 22.7224 53.6988 22.7224C53.5882 22.7224 53.487 22.6988 53.3952 22.6541C53.3035 22.6094 53.2588 22.5224 53.2588 22.3977C53.2588 22.3835 53.2611 22.3576 53.2658 22.3224C53.2705 22.2871 53.2776 22.2471 53.2847 22.2071C53.2917 22.1671 53.2988 22.1294 53.3035 22.0965C53.3082 22.0635 53.3105 22.0447 53.3105 22.0377C53.3058 22 53.2988 21.9694 53.2894 21.9482C53.28 21.9271 53.2635 21.9082 53.2423 21.8894C53.2211 21.8729 53.1882 21.8635 53.1458 21.8635C53.0988 21.8635 53.0376 21.8871 52.9647 21.9318C52.8917 21.9765 52.8258 22.0424 52.7623 22.1294C52.6988 22.2165 52.6447 22.32 52.6 22.4424C52.5553 22.5647 52.5317 22.7035 52.5317 22.8565V24.7012H53.1011V24.8024H51.1835V24.7012H51.6517V21.8094H51.1835V21.7082H52.5176L52.5129 21.7153Z" fill="url(#paint14_linear_2039_811)"/>
<path d="M56.7835 21.7459C56.9976 21.8353 57.1835 21.9529 57.3411 22.1035C57.4988 22.2517 57.6235 22.4259 57.7129 22.6259C57.8023 22.8259 57.847 23.0353 57.847 23.2564C57.847 23.4776 57.8023 23.6941 57.7129 23.8941C57.6235 24.0941 57.5011 24.2682 57.3411 24.4164C57.1835 24.5647 56.9952 24.6823 56.7835 24.7694C56.5694 24.8564 56.3388 24.8988 56.087 24.8988C55.8352 24.8988 55.6047 24.8564 55.3905 24.7694C55.1764 24.6823 54.9905 24.5647 54.8329 24.4164C54.6752 24.2682 54.5505 24.0941 54.4611 23.8941C54.3717 23.6941 54.327 23.4823 54.327 23.2564C54.327 23.0306 54.3717 22.8259 54.4611 22.6259C54.5505 22.4259 54.6729 22.2517 54.8329 22.1035C54.9905 21.9553 55.1788 21.8353 55.3905 21.7459C55.6047 21.6565 55.8352 21.6117 56.087 21.6117C56.3388 21.6117 56.5694 21.6565 56.7835 21.7459ZM56.527 24.6729C56.6329 24.5835 56.7105 24.4682 56.7623 24.3223C56.8117 24.1788 56.8447 24.0117 56.8564 23.8259C56.8682 23.6376 56.8752 23.4494 56.8752 23.2564C56.8752 23.0635 56.8682 22.8753 56.8564 22.6917C56.8447 22.5059 56.8141 22.3412 56.7623 22.1976C56.7129 22.0541 56.6329 21.9364 56.527 21.847C56.4211 21.7576 56.2752 21.7129 56.087 21.7129C55.8988 21.7129 55.7529 21.7576 55.647 21.847C55.5411 21.9364 55.4635 22.0517 55.4117 22.1976C55.3623 22.3412 55.3294 22.5059 55.3176 22.6917C55.3058 22.8776 55.2988 23.0659 55.2988 23.2564C55.2988 23.447 55.3058 23.6376 55.3176 23.8259C55.3294 24.0141 55.3599 24.1788 55.4117 24.3223C55.4611 24.4659 55.5411 24.5835 55.647 24.6729C55.7529 24.7623 55.8988 24.807 56.087 24.807C56.2752 24.807 56.4211 24.7623 56.527 24.6729Z" fill="url(#paint15_linear_2039_811)"/>
<defs>
<linearGradient id="paint0_linear_2039_811" x1="7.50351" y1="10.6353" x2="20.7623" y2="2.97882" gradientUnits="userSpaceOnUse">
<stop stop-color="#F9C66B"/>
<stop offset="0.31" stop-color="#FFE794"/>
<stop offset="1" stop-color="#F9C05A"/>
</linearGradient>
<linearGradient id="paint1_linear_2039_811" x1="21.6776" y1="11.4988" x2="32.9435" y2="4.99529" gradientUnits="userSpaceOnUse">
<stop stop-color="#F9C66B"/>
<stop offset="0.31" stop-color="#FFE794"/>
<stop offset="1" stop-color="#F9C05A"/>
</linearGradient>
<linearGradient id="paint2_linear_2039_811" x1="35.1506" y1="10.6353" x2="48.4094" y2="2.97882" gradientUnits="userSpaceOnUse">
<stop stop-color="#F9C66B"/>
<stop offset="0.31" stop-color="#FFE794"/>
<stop offset="1" stop-color="#F9C05A"/>
</linearGradient>
<linearGradient id="paint3_linear_2039_811" x1="-0.717646" y1="23.5553" x2="4.14588" y2="20.7459" gradientUnits="userSpaceOnUse">
<stop stop-color="#F9C66B"/>
<stop offset="0.31" stop-color="#FFE794"/>
<stop offset="1" stop-color="#F9C05A"/>
</linearGradient>
<linearGradient id="paint4_linear_2039_811" x1="4.55529" y1="24.0612" x2="7.95294" y2="22.1012" gradientUnits="userSpaceOnUse">
<stop stop-color="#F9C66B"/>
<stop offset="0.31" stop-color="#FFE794"/>
<stop offset="1" stop-color="#F9C05A"/>
</linearGradient>
<linearGradient id="paint5_linear_2039_811" x1="8.39293" y1="24.127" x2="11.3953" y2="22.3929" gradientUnits="userSpaceOnUse">
<stop stop-color="#F9C66B"/>
<stop offset="0.31" stop-color="#FFE794"/>
<stop offset="1" stop-color="#F9C05A"/>
</linearGradient>
<linearGradient id="paint6_linear_2039_811" x1="12.8917" y1="23.8753" x2="17.0941" y2="21.4494" gradientUnits="userSpaceOnUse">
<stop stop-color="#F9C66B"/>
<stop offset="0.31" stop-color="#FFE794"/>
<stop offset="1" stop-color="#F9C05A"/>
</linearGradient>
<linearGradient id="paint7_linear_2039_811" x1="17.8541" y1="23.92" x2="22.3741" y2="21.3106" gradientUnits="userSpaceOnUse">
<stop stop-color="#F9C66B"/>
<stop offset="0.31" stop-color="#FFE794"/>
<stop offset="1" stop-color="#F9C05A"/>
</linearGradient>
<linearGradient id="paint8_linear_2039_811" x1="22.7694" y1="23.8706" x2="26.9035" y2="21.4847" gradientUnits="userSpaceOnUse">
<stop stop-color="#F9C66B"/>
<stop offset="0.31" stop-color="#FFE794"/>
<stop offset="1" stop-color="#F9C05A"/>
</linearGradient>
<linearGradient id="paint9_linear_2039_811" x1="28.5082" y1="24.4071" x2="31.4823" y2="22.6894" gradientUnits="userSpaceOnUse">
<stop stop-color="#F9C66B"/>
<stop offset="0.31" stop-color="#FFE794"/>
<stop offset="1" stop-color="#F9C05A"/>
</linearGradient>
<linearGradient id="paint10_linear_2039_811" x1="31.8823" y1="24.1835" x2="34.8988" y2="22.4423" gradientUnits="userSpaceOnUse">
<stop stop-color="#F9C66B"/>
<stop offset="0.31" stop-color="#FFE794"/>
<stop offset="1" stop-color="#F9C05A"/>
</linearGradient>
<linearGradient id="paint11_linear_2039_811" x1="34.6423" y1="23.7341" x2="38.3858" y2="21.5718" gradientUnits="userSpaceOnUse">
<stop stop-color="#F9C66B"/>
<stop offset="0.31" stop-color="#FFE794"/>
<stop offset="1" stop-color="#F9C05A"/>
</linearGradient>
<linearGradient id="paint12_linear_2039_811" x1="41.0705" y1="23.5553" x2="45.9341" y2="20.7459" gradientUnits="userSpaceOnUse">
<stop stop-color="#F9C66B"/>
<stop offset="0.31" stop-color="#FFE794"/>
<stop offset="1" stop-color="#F9C05A"/>
</linearGradient>
<linearGradient id="paint13_linear_2039_811" x1="47.0964" y1="24.1553" x2="50.4423" y2="22.2235" gradientUnits="userSpaceOnUse">
<stop stop-color="#F9C66B"/>
<stop offset="0.31" stop-color="#FFE794"/>
<stop offset="1" stop-color="#F9C05A"/>
</linearGradient>
<linearGradient id="paint14_linear_2039_811" x1="50.7482" y1="24.0612" x2="54.1482" y2="22.1012" gradientUnits="userSpaceOnUse">
<stop stop-color="#F9C66B"/>
<stop offset="0.31" stop-color="#FFE794"/>
<stop offset="1" stop-color="#F9C05A"/>
</linearGradient>
<linearGradient id="paint15_linear_2039_811" x1="54.5858" y1="24.127" x2="57.5905" y2="22.3929" gradientUnits="userSpaceOnUse">
<stop stop-color="#F9C66B"/>
<stop offset="0.31" stop-color="#FFE794"/>
<stop offset="1" stop-color="#F9C05A"/>
</linearGradient>
</defs>
</svg>
