<svg width="36" height="28" viewBox="0 0 36 28" fill="none" xmlns="http://www.w3.org/2000/svg">
<g clip-path="url(#clip0_2039_1142)">
<path d="M7.43114 27.8653V13.9029L3.00106 9.94149L-0.971497 7.74316V25.4013C-0.971497 26.7647 0.158589 27.8653 1.54935 27.8653H7.43114Z" fill="#4285F4"/>
<path d="M27.5974 27.8652H33.4792C34.8741 27.8652 36 26.7605 36 25.4012V7.74316L31.5005 10.2611L27.5974 13.9028V27.8652Z" fill="#34A853"/>
<path d="M7.43118 13.9035L6.82837 8.44803L7.43118 3.22656L17.5143 10.6184L27.5974 3.22656L28.2717 8.16613L27.5974 13.9035L17.5143 21.2954L7.43118 13.9035Z" fill="#EA4335"/>
<path d="M27.5974 3.22575V13.9027L36 7.74296V4.45768C36 1.41068 32.4415 -0.326326 29.9503 1.50103L27.5974 3.22575Z" fill="#FBBC04"/>
<path d="M-0.971497 7.74302L2.89304 10.5762L7.43114 13.9028V3.22582L5.07825 1.50109C2.58268 -0.326402 -0.971497 1.41075 -0.971497 4.4576V7.74302Z" fill="#C5221F"/>
</g>
<defs>
<clipPath id="clip0_2039_1142">
<rect width="36" height="28" fill="white"/>
</clipPath>
</defs>
</svg>
